#!OML:ASF F:\VICON\USERDATA\INSTALL\rory3\rory3.ASF
:FULLY-SPECIFIED
:DEGREES
675
root 0.296786 16.4469 10.988 -66.6817 -72.7482 87.4271
lowerback -0.73658 -3.18537 1.4726
upperback -3.71048 -4.21449 4.86146
thorax -3.15087 -2.11963 4.28067
lowerneck -8.50825 3.61481 4.32698
upperneck 33.4554 -1.33641 11.1586
head 12.6868 0.799112 3.2797
rclavicle 2.38542e-014 -5.40694e-014
rhumerus -200.9 -234.585 130.719
rradius 76.2461
rwrist -96.7595
rhand 30.2974 0.210171
rfingers 7.12502
rthumb 53.9741 -18.6454
lclavicle 2.38542e-014 -5.40694e-014
lhumerus 21.3102 -83.4292 23.3942
lradius 68.3053
lwrist 40.8066
lhand 36.2874 22.288
lfingers 7.12502
lthumb 59.2529 36.8294
rfemur -63.5448 -36.1879 17.9326
rtibia 52.0284
rfoot -43.3739 -36.4294
rtoes 48.7847
lfemur -27.2722 6.93478 -18.5304
ltibia 38.5164
lfoot 1.74276 14.5189
ltoes -28.2781
676
root 0.281087 16.4616 10.9006 -69.1121 -71.1802 89.2989
lowerback 0.0316471 -3.1391 0.549058
upperback -3.36778 -4.13801 4.65878
thorax -3.18241 -2.05059 4.61895
lowerneck -8.4995 3.90943 4.57276
upperneck 33.7808 -0.922921 10.9032
head 12.8042 0.99978 3.20768
rclavicle 1.74931e-014 1.90833e-014
rhumerus -200.397 -232.805 134.041
rradius 75.0789
rwrist -97.0858
rhand 30.2985 -0.0813655
rfingers 7.12502
rthumb 53.9752 -18.9362
lclavicle 1.74931e-014 1.90833e-014
lhumerus 16.3912 -82.4874 27.7248
lradius 65.5909
lwrist 37.5397
lhand 36.5062 22.3616
lfingers 7.12502
lthumb 59.4413 36.7153
rfemur -62.833 -36.8557 16.2476
rtibia 51.8957
rfoot -42.8644 -35.8965
rtoes 48.6061
lfemur -26.2451 6.95995 -18.3446
ltibia 38.4412
lfoot 6.83121 12.6983
ltoes -11.7068
677
root 0.283208 16.5158 10.7837 -67.4103 -71.5208 87.3418
lowerback 0.590421 -3.16904 1.7374
upperback -3.21323 -4.13502 5.03775
thorax -3.39493 -2.0787 4.38134
lowerneck -8.31284 4.16252 4.97399
upperneck 33.8842 -0.520685 10.5725
head 12.7952 1.19576 3.06172
rclavicle 1.59028e-014 6.36111e-015
rhumerus -199.74 -231.141 137.33
rradius 73.5327
rwrist -96.8069
rhand 31.7437 -0.936099
rfingers 7.12502
rthumb 55.2674 -18.8796
lclavicle 1.59028e-014 6.36111e-015
lhumerus 13.2927 -81.7491 29.8262
lradius 63.2488
lwrist 34.3873
lhand 36.2079 22.0464
lfingers 7.12502
lthumb 59.1844 36.6554
rfemur -61.8572 -36.4633 16.6397
rtibia 51.491
rfoot -44.259 -35.6416
rtoes 48.9975
lfemur -26.4878 7.42162 -15.787
ltibia 38.7619
lfoot 15.1729 12.5961
ltoes -5.46727
678
root 0.278149 16.5592 10.6802 -66.5322 -71.1935 86.2293
lowerback 0.970784 -3.29592 2.39438
upperback -3.01271 -4.27319 5.12177
thorax -3.43558 -2.16368 4.12402
lowerneck -8.11665 4.53279 5.09233
upperneck 33.9646 -0.0515337 10.7111
head 12.7709 1.43734 3.15638
rclavicle 3.18055e-015 8.26944e-014
rhumerus -198.617 -229.858 140.687
rradius 71.9802
rwrist -96.267
rhand 32.3322 -1.52082
rfingers 7.12502
rthumb 55.7906 -19.0718
lclavicle 3.18055e-015 8.26944e-014
lhumerus 8.6407 -80.7248 33.116
lradius 61.2016
lwrist 31.3537
lhand 36.1088 22.2775
lfingers 7.12502
lthumb 59.0989 36.9702
rfemur -61.0849 -36.4416 16.3723
rtibia 51.1544
rfoot -44.9686 -35.3668
rtoes 49.1623
lfemur -26.8082 7.9621 -14.1112
ltibia 39.1282
lfoot 23.367 14.725
ltoes -1.27793
679
root 0.273249 16.5822 10.5888 -66.047 -70.3879 85.5327
lowerback 1.30283 -3.55401 2.47743
upperback -2.85603 -4.59817 5.12972
thorax -3.44977 -2.32498 4.11428
lowerneck -7.87072 5.04417 5.14687
upperneck 34.2472 0.552012 10.9682
head 12.8148 1.74517 3.33446
rclavicle -1.43125e-014 0
rhumerus -197.028 -228.569 144.082
rradius 70.1718
rwrist -95.2014
rhand 31.7501 -0.714225
rfingers 7.12502
rthumb 55.2731 -18.6535
lclavicle -1.43125e-014 0
lhumerus 2.95475 -79.3845 37.4088
lradius 59.2203
lwrist 28.6693
lhand 36.1826 22.7178
lfingers 7.12502
lthumb 59.1625 37.3482
rfemur -60.8186 -37.2968 16.0714
rtibia 50.9122
rfoot -44.1372 -35.4174
rtoes 48.5648
lfemur -27.1679 7.63661 -12.7732
ltibia 39.6334
lfoot 29.5143 18.7766
ltoes 3.22266
